<svg width="13" height="11" viewBox="0 0 13 11" fill="none" xmlns="http://www.w3.org/2000/svg">
<path d="M4.49998 11.0001C4.23479 11 3.98047 10.8946 3.79298 10.7071L0.79298 7.70706C0.610822 7.51846 0.510027 7.26586 0.512306 7.00366C0.514584 6.74147 0.619753 6.49065 0.805161 6.30524C0.990569 6.11984 1.24138 6.01467 1.50358 6.01239C1.76578 6.01011 2.01838 6.11091 2.20698 6.29306L4.40698 8.49306L10.71 0.386063C10.8728 0.176542 11.1122 0.0402918 11.3755 0.00728544C11.6388 -0.025721 11.9045 0.0472204 12.114 0.210063C12.3235 0.372906 12.4598 0.612311 12.4928 0.875613C12.5258 1.13891 12.4528 1.40454 12.29 1.61406L5.28998 10.6141C5.20302 10.7264 5.09312 10.819 4.96759 10.8855C4.84206 10.9521 4.70378 10.9911 4.56198 11.0001H4.49998Z" fill="current"/>
</svg>
